# The Great Editor v0.0.1
mtllib floor_1.mtl
o floor_1
v 1.7021964244617582 -0.2768394455749992 0
v 1.7021964244617582 -0.2768394455749992 -0.1
v 3.5118692992590095 -0.07128932163157638 0
v 3.5118692992590095 -0.07128932163157638 -0.1
v 4.110618230781032 -0.7772886752023717 0
v 4.110618230781032 -0.7772886752023717 -0.1
v 4.463606606152093 -2.734422404255934 0
v 4.463606606152093 -2.734422404255934 -0.1
v 3.6012182809995363 -3.3689290107371046 0
v 3.6012182809995363 -3.3689290107371046 -0.1
v 1.7021964244617582 -3.583407252005979 0
v 1.7021964244617582 -3.583407252005979 -0.1
v 1.0185286656189267 -2.6718577744917607 0
v 1.0185286656189267 -2.6718577744917607 -0.1
v 0.7191541998579156 -1.773734377208727 0
v 0.7191541998579156 -1.773734377208727 -0.1
v 0.6923472450528904 -0.880063737174083 0
v 0.6923472450528904 -0.880063737174083 -0.1
vt 1.7021964244617582 -0.2768394455749992 0
vt 3.5118692992590095 -0.07128932163157638 0
vt 4.110618230781032 -0.7772886752023717 0
vt 4.463606606152093 -2.734422404255934 0
vt 3.6012182809995363 -3.3689290107371046 0
vt 1.7021964244617582 -3.583407252005979 0
vt 1.0185286656189267 -2.6718577744917607 0
vt 0.7191541998579156 -1.773734377208727 0
vt 0.6923472450528904 -0.880063737174083 0
vn 0 0 1
vn 0 0 -1
usemtl floor_1
s off
f 17/9/1 15/8/1 1/1/1
f 2/1/2 16/8/2 18/9/2
f 1/1/1 15/8/1 13/7/1
f 14/7/2 16/8/2 2/1/2
f 1/1/1 13/7/1 9/5/1
f 10/5/2 14/7/2 2/1/2
f 1/1/1 9/5/1 5/3/1
f 6/3/2 10/5/2 2/1/2
f 1/1/1 5/3/1 3/2/1
f 4/2/2 6/3/2 2/1/2
f 5/3/1 9/5/1 7/4/1
f 8/4/2 10/5/2 6/3/2
f 11/6/1 9/5/1 13/7/1
f 14/7/2 10/5/2 12/6/2
